<?xml version="1.0" encoding="UTF-8" standalone="no"?>
<svg width="430px" height="302px" viewBox="0 0 430 302" version="1.1" xmlns="http://www.w3.org/2000/svg" xmlns:xlink="http://www.w3.org/1999/xlink">
    <!-- Generator: Sketch 40.1 (33804) - http://www.bohemiancoding.com/sketch -->
    <title>fakie-logotype</title>
    <desc>Created with Sketch.</desc>
    <defs></defs>
    <g id="Page-1" stroke="none" stroke-width="1" fill="none" fill-rule="evenodd">
        <path d="M133.310023,81 C136.612704,80.629 138.318671,78.664 140.32634,77 C138.3738,77.206 133.087506,74.064 130.30303,76 C132.282634,76.691 132.975245,78.667 133.310023,81 L133.310023,81 Z M201.468531,293 L199.463869,293 C198.852448,293.057 198.27711,293.149 198.461538,294 C200.340909,295.124 200.59049,297.876 202.470862,299 C200.750862,296.445 203.618531,295.5 201.468531,294 C201.471538,294.556 200.656643,295.135 200.4662,294 C201.077622,293.943 201.65296,293.851 201.468531,293 L201.468531,293 Z M220.512821,286 C223.399534,281.609 221.031026,290.701 224.522145,289 C227.481026,286.625 223.310326,282.942 223.519814,280 L219.51049,280 C220.339417,283.049 219.628765,285.092 220.512821,286 L220.512821,286 Z M204.475524,280 L204.475524,286 C209.752797,287.227 213.004359,281.227 210.48951,278 C210.378252,280.555 207.132704,279.984 204.475524,280 L204.475524,280 Z M202.470862,287 L202.470862,280 C198.547739,280.581 196.651329,279.14 194.452214,278 C194.678741,283.44 197.331911,286.461 202.470862,287 L202.470862,287 Z M226.526807,278 C226.82951,282.364 227.569231,286.294 229.5338,289 C233.385758,286.435 235.080699,278.414 231.538462,274 C231.350023,276.813 229.795408,278.261 226.526807,278 L226.526807,278 Z M217.505828,272 C218.13028,273.028 218.11324,275.442 222.517483,275 L222.517483,270 C220.030699,269.853 217.65317,269.813 217.505828,272 L217.505828,272 Z M224.522145,273 C228.342028,272.812 231.117483,271.58 231.538462,268 C230.214382,267.988 230.622331,266.247 229.5338,266 C229.422541,269.542 226.220093,263.875 226.526807,267 C228.703869,267.966 222.366131,268.754 224.522145,273 L224.522145,273 Z M204.475524,264 C208.600117,263.673 204.568741,269.224 204.475524,271 C210.49352,270.337 215.502168,268.668 214.498834,261 C211.429697,262.272 207.233939,262.419 204.475524,264 L204.475524,264 Z M194.452214,268 C196.851795,269.272 198.142797,271.651 202.470862,271 L202.470862,263 C199.376667,262.754 196.804685,261.986 194.452214,261 L194.452214,268 L194.452214,268 Z M219.51049,263 C221.155315,263.164 221.155315,256.836 219.51049,257 C217.239207,258.294 214.935851,262.47 219.51049,263 L219.51049,263 Z M175.407925,287 C177.43965,281.645 177.535874,272.244 180.41958,264 C181.929091,259.684 187.941072,249.471 185.431235,251 C180.503776,261.417 174.44669,270.707 175.407925,287 L175.407925,287 Z M183.426573,279 C180.769394,293.941 183.82049,279.469 185.431235,272 C185.50641,270.599 185.207716,268.176 184.428904,270 C183.758345,274.189 184.04,275.553 183.426573,279 L183.426573,279 Z M188.438228,264 C185.563543,261.876 187.911002,262.578 187.435897,265 C186.640047,269.059 184.368765,282.332 183.426573,290 C198.608881,288.811 190.658392,259.22 192.447552,248 C188.710862,260.272 196.770606,284.313 184.428904,288 C187.560186,280.517 187.599277,271.479 188.438228,264 L188.438228,264 Z M179.417249,275 L179.417249,284 C181.677506,283.256 179.809161,278.391 180.41958,276 C181.573263,274.818 181.554219,272.465 181.421911,270 C182.546527,269.898 182.982541,271.453 183.426573,270 C182.258858,269.832 182.338042,268.419 182.424242,267 C185.358065,263.748 189.752284,247.683 188.438228,250 C184.747646,257.651 181.161305,265.406 179.417249,275 L179.417249,275 Z M265.617716,262 L271.631702,262 C270.327669,259.517 274.572541,257.85 271.631702,257 C271.723916,260.759 266.609021,259.323 265.617716,262 L265.617716,262 Z M267.622378,247 C268.985548,253.063 257.79352,260.933 264.615385,260 C263.837576,259.776 262.637786,259.973 262.610723,259 C266.608019,259.549 265.629744,259.549 269.62704,259 C270.4269,254.969 271.648741,250.029 267.622378,247 L267.622378,247 Z M217.505828,250 C220.585991,251.53 220.585991,243.47 217.505828,245 L217.505828,250 L217.505828,250 Z M206.480186,246 C207.250979,249.769 205.257343,250.78 205.477855,254 C210.052494,254.897 211.159068,252.335 214.498834,252 C214.327436,249.171 215.360839,245.14 212.494172,245 C212.368881,247.209 208.242284,245.425 206.480186,246 L206.480186,246 Z M194.452214,251 C196.883869,252.574 198.732168,254.729 203.473193,254 L203.473193,246 C200.027179,246.438 197.855128,245.604 195.454545,245 C196.179231,248.056 194.429161,248.645 194.452214,251 L194.452214,251 Z M222.517483,262 C225.669814,262.479 226.435594,260.576 228.531469,260 L228.531469,254 C224.99324,255.137 221.49711,256.315 222.517483,262 L222.517483,262 Z M235.547786,257 C234.088392,263.049 243.903217,274.302 237.552448,282 C234.858182,268.688 230.488019,257.048 227.529138,244 C227.322657,252.934 233.828788,272.336 236.550117,285 C246.172494,276.93 235.173916,255.197 234.545455,248 C234.268811,249.753 237.367016,252.989 234.545455,254 C232.84951,250.67 234.147529,246.629 231.538462,250 C232.137855,246.388 233.196317,243.327 230.536131,241 C229.654079,244.299 233.110117,247.244 229.5338,245 C232.666084,252.07 231.405152,255.099 235.547786,257 L235.547786,257 Z M220.512821,249 C223.005618,249.154 223.616037,247.429 225.524476,247 C225.731958,244.126 225.269883,241.92 223.519814,241 C221.792797,242.943 219.408252,244.231 220.512821,249 L220.512821,249 Z M149.347319,252 C154.091352,246.07 146.367389,244.612 144.335664,240 C142.311958,245.561 143.478671,251.571 149.347319,252 L149.347319,252 Z M229.5338,242 C229.536807,240.997 228.721911,240.81 228.531469,240 L230.536131,240 C229.858555,237.342 228.958462,234.908 227.529138,233 C227.068065,235.231 227.595291,242.879 229.5338,242 L229.5338,242 Z M173.403263,231 C166.614476,231.907 157.177529,235.461 158.368298,241 C158.643939,240.092 162.101981,237.642 162.377622,240 C156.548065,241.184 154.153497,242.405 152.354312,249 C155.527692,250.561 157.449161,248.283 159.370629,246 C156.431795,244.85 155.647972,250.797 154.358974,248 C161.683007,243.307 168.467786,238.075 173.403263,231 L173.403263,231 Z M153.356643,243 C157.879161,239.194 150.965082,235.64 150.34965,231 C147.277506,235.771 149.022564,240.615 153.356643,243 L153.356643,243 Z M234.545455,231 C235.361352,231.884 231.446247,229.066 231.538462,229 C232.339324,228.422 231.844172,235.881 231.538462,234 C234.153543,250.083 248.525967,270.663 261.608392,276 C263.761399,263.767 250.181818,258.796 244.568765,251 C243.972378,253.071 245.807646,257.569 243.566434,258 C243.268741,246.959 238.197949,234.955 234.545455,231 L234.545455,231 Z M240.559441,238 C244.077622,252.49 256.575688,258.021 263.613054,269 C255.981305,258.614 252.28972,244.297 240.559441,238 L240.559441,238 Z M244.568765,234 C239.414779,232.3 242.159161,230.749 239.55711,227 C238.057622,227.171 235.858508,226.643 235.547786,228 C239.214312,227.822 239.469907,231.902 237.552448,233 C239.133124,236.119 245.010793,240.185 247.575758,239 C245.395688,236.842 242.338578,235.558 239.55711,234 C242.045897,232.699 243.716783,236.934 244.568765,234 L244.568765,234 Z M157.365967,236 C160.100326,236.729 159.38366,234.013 161.375291,234 C160.887156,229.82 158.015478,228.019 157.365967,224 C153.914942,227.522 156.177203,231.882 157.365967,236 L157.365967,236 Z M149.347319,231 C149.617949,229.176 152.955711,225.395 150.34965,224 C150.079021,225.824 146.741259,229.605 149.347319,231 L149.347319,231 Z M167.389277,273 C181.332704,266.244 183.767366,248.007 190.44289,234 C188.943403,233.829 186.744289,234.357 186.433566,233 C187.214382,232.779 187.599277,232.163 187.435897,231 C189.015571,231.091 188.220723,233.551 190.44289,233 C191.124476,230.622 194.978438,226.269 192.447552,224 C192.207995,225.086 190.796713,226.401 190.44289,225 C184.37979,231.522 167.931538,252.341 167.389277,273 L167.389277,273 Z M186.433566,229 C185.602634,226.389 189.464615,223.514 186.433566,222 C180.932774,237.741 164.934569,247.701 163.379953,266 C172.065152,254.665 175.17338,237.766 186.433566,229 L186.433566,229 Z M177.412587,229 C176.532541,230.768 174.2362,231.919 176.410256,234 C166.420023,237.816 160.872121,248.918 157.365967,263 C156.625245,258.551 160.771888,253.79 158.368298,251 C156.383683,256.44 156.073963,267.679 157.365967,269 C159.500932,261.039 160.928252,257.33 162.377622,250 C162.534988,251.177 162.205221,252.839 163.379953,253 C163.956294,251.242 162.168135,247.125 164.382284,247 C164.062541,248.226 164.54366,253.177 165.384615,250 C165.93289,248.547 164.21289,244.831 166.386946,245 C166.456107,252.482 166.872075,248.225 168.391608,245 C168.071865,246.226 168.552984,251.177 169.393939,248 C168.901795,241.206 177.428625,240.243 175.407925,235 C178.565268,238.238 176.158671,232.395 178.414918,232 C178.472051,232.61 178.564266,233.184 179.417249,233 C179.6969,230.721 179.175688,229.241 177.412587,229 L177.412587,229 Z M251.585082,232 C249.591445,234.377 245.844732,235.602 248.578089,240 C252.322797,241.069 251.435734,237.517 254.592075,238 C255.087226,230.295 252.477156,221.856 247.575758,221 C249.896154,223.685 251.520932,227.063 251.585082,232 L251.585082,232 Z M156.363636,223 C159.341562,221.123 158.501608,219.238 159.370629,217 C156.35662,216.405 153.684406,221.221 156.363636,223 L156.363636,223 Z M166.386946,229 C168.894779,225.645 168.69331,219.682 166.386946,216 C162.112005,219.453 161.603823,225.823 166.386946,229 L166.386946,229 Z M243.566434,221 C243.570443,223.671 240.399068,223.173 240.559441,226 C242.002797,228.213 243.005128,224.741 243.566434,227 C242.785618,227.221 242.400723,227.837 242.564103,229 C251.146061,225.954 237.914289,204.996 243.566434,221 L243.566434,221 Z M164.382284,232 C170.42634,231.015 180.302308,228.57 178.414918,223 C179.131585,224.622 173.688928,224.622 174.405594,223 C181.655455,224.213 184.48303,215.748 183.426573,212 C177.130932,218.719 171.060816,225.662 164.382284,232 L164.382284,232 Z M236.550117,218 C240.809021,217.382 237.620606,208.771 235.547786,208 C235.22303,214.22 237.422145,212.814 236.550117,218 L236.550117,218 Z M174.405594,220 C174.208135,217.137 174.280303,214.542 177.412587,215 C176.477413,211.933 174.292331,210.113 173.403263,207 C170.906457,211.227 170.985641,216.842 174.405594,220 L174.405594,220 Z M181.421911,210 C181.184359,206.904 178.632424,206.116 177.412587,204 C177.075804,207.67 178.952168,209.131 181.421911,210 L181.421911,210 Z M230.536131,208 C234.408135,209.29 232.462611,196.052 231.538462,199 C231.848182,202.643 231.379091,205.508 230.536131,208 L230.536131,208 Z M198.461538,205 C197.157506,201.967 198.692075,196.103 195.454545,195 C196.151166,198.638 195.501655,203.619 198.461538,205 L198.461538,205 Z M285.664336,191 C288.568089,195.767 299.673916,191.809 294.685315,186 C293.405338,189.39 288.33655,188.999 285.664336,191 L285.664336,191 Z M140.32634,193 C145.355035,193.684 146.602937,190.595 147.342657,187 C145.275851,186.395 140.379464,188.613 141.328671,185 C141.271538,184.39 141.179324,183.816 140.32634,184 C139.560559,186.359 138.350746,190.911 140.32634,193 L140.32634,193 Z M280.652681,192 C280.865175,190.878 281.764266,190.443 282.657343,190 C282.706457,186.951 281.747226,184.908 279.65035,184 C280.546434,187.229 276.380746,185.405 275.641026,187 C273.55317,185.749 271.413193,184.551 269.62704,183 C270.762681,188.533 274.264825,191.706 280.652681,192 L280.652681,192 Z M155.361305,190 C152.568811,188.786 151.564476,185.788 150.34965,183 C150.459907,187.958 149.366364,187.913 150.34965,192 C155.80634,195.59 163.657599,184.685 159.370629,182 C157.718788,184.352 159.054895,189.686 155.361305,190 L155.361305,190 Z M133.310023,186 C133.607716,183.964 135.317692,183.336 136.317016,182 C135.705594,181.943 135.130256,181.851 135.314685,181 L133.310023,181 C133.909417,182.78 130.372191,185.153 133.310023,186 L133.310023,186 Z M127.296037,184 C127.220862,182.258 127.519557,180.89 128.298368,180 C126.918159,180.043 126.097249,179.529 125.291375,179 C124.643869,181.436 123.266667,184.144 127.296037,184 L127.296037,184 Z M281.655012,182 C283.565455,191.865 298.430023,181.053 289.67366,177 C287.943636,179.607 286.067273,182.069 281.655012,182 L281.655012,182 Z M267.622378,189 C269.927739,186.406 267.586294,182.386 266.620047,180 C262.18373,183.627 258.340793,176.639 256.596737,178 C259.705967,182.231 260.93683,188.337 267.622378,189 L267.622378,189 Z M255.594406,179 C256.750093,175.435 250.933566,173.757 250.582751,175 C252.084242,176.502 253.597762,177.992 255.594406,179 L255.594406,179 Z M266.620047,174 C266.636084,179.318 271.151585,180.145 275.641026,181 C275.862541,180.221 276.480979,179.837 277.645688,180 C276.877902,177.099 276.06,174.248 273.636364,173 C277.145524,177.939 269.236131,174.466 266.620047,174 L266.620047,174 Z M165.384615,180 C168.48683,180.683 169.558322,174.271 167.389277,173 C164.824312,175.509 166.804918,176.349 165.384615,180 L165.384615,180 Z M143.333333,178 C144.518089,179.151 146.876573,179.132 149.347319,179 C148.937366,176.591 151.177576,176.826 150.34965,174 C147.298555,175.254 146.451585,174.764 144.335664,173 C144.745618,175.409 142.505408,175.174 143.333333,178 L143.333333,178 Z M141.328671,172 C139.948462,172.043 139.127552,171.529 138.321678,171 C138.583287,173.928 136.055408,174.072 136.317016,177 C137.094825,177.224 138.294615,177.027 138.321678,178 C141.734615,178.072 142.055361,175.059 143.333333,173 C140.112844,172.12 141.96014,176.296 139.324009,176 C139.845221,174.521 140.806457,173.479 141.328671,172 L141.328671,172 Z M130.30303,174 L132.307692,174 C133.71697,173.739 133.45035,171.807 134.312354,171 C132.932145,171.043 132.111235,170.529 131.305361,170 C130.989627,171.353 129.879044,171.91 130.30303,174 L130.30303,174 Z M160.37296,176 C160.894172,174.426 164.231935,170.645 161.375291,169 C161.007436,170.728 158.345245,175.183 160.37296,176 L160.37296,176 Z M154.358974,176 C154.583497,175.224 154.386037,174.027 155.361305,174 C155.373333,175.009 157.118392,175.258 157.365967,174 C155.80634,173.739 156.671352,171.807 157.365967,171 C154.630606,171.729 155.348275,169.013 153.356643,169 C153.561119,170.891 152.681072,178.88 154.358974,176 L154.358974,176 Z M275.641026,171 C275.416503,172.891 276.770653,173.206 276.643357,175 L283.659674,175 C285.249371,172.871 286.861119,168.632 283.659674,167 C280.882214,168.277 281.01352,172.397 275.641026,171 L275.641026,171 Z M263.613054,174 C263.773427,170.84 263.648135,167.965 261.608392,167 C260.852634,170.198 254.194149,165.952 254.592075,168 C256.345152,171.251 257.93986,174.66 263.613054,174 L263.613054,174 Z M212.494172,165 C211.170093,164.988 211.578042,163.247 210.48951,163 C210.764149,170.118 213.08655,176.897 212.494172,165 L212.494172,165 Z M166.386946,169 C167.171772,168.306 168.618135,163.42 166.386946,163 C165.602121,163.694 164.155758,168.58 166.386946,169 L166.386946,169 Z M143.333333,167 C143.457622,164.497 145.246783,163.869 142.331002,163 C140.381469,164.93 141.282564,169.121 145.337995,168 C143.960793,165.721 147.922005,164.241 145.337995,164 C144.851865,165.182 144.26951,166.267 143.333333,167 L143.333333,167 Z M262.610723,166 C263.870653,166.41 264.659487,167.29 264.615385,169 C267.55021,169.261 267.694545,166.739 270.629371,167 C270.77972,164.517 270.111166,162.85 268.624709,162 C269.898671,166.605 263.541888,163.595 262.610723,166 L262.610723,166 Z M147.342657,168 L152.354312,168 C153.375688,166.687 153.336597,164.313 154.358974,163 C151.888228,163.132 149.529744,163.151 148.344988,162 C148.36704,164.355 146.617972,164.944 147.342657,168 L147.342657,168 Z M193.449883,166 C191.057319,188.387 200.512308,198.954 205.477855,214 C202.844732,200.281 194.385058,184.997 193.449883,166 L193.449883,166 Z M203.473193,174 C202.852751,171.286 204.745152,166.063 202.470862,165 C199.843753,171.02 204.209907,177.643 202.470862,182 C202.055897,176.661 198.995781,171.199 201.468531,166 C199.053916,165.591 199.289464,167.826 196.456876,167 C195.363333,184.091 201.399371,194.068 205.477855,206 C206.459138,195.345 199.674359,187.136 200.4662,180 C204.66296,189.146 205.538998,201.605 208.484848,212 C208.642214,210.823 208.312448,209.161 209.487179,209 C209.498205,210.467 209.108298,217.183 210.48951,214 C214.150023,203.775 206.114336,190.272 209.487179,186 C208.707366,186.987 210.483497,189.044 210.48951,189 C211.863706,178.759 211.189138,175.293 209.487179,164 C205.268368,162.458 209.327809,169.175 206.480186,169 C207.803263,152.534 205.129044,167.063 203.473193,174 L203.473193,174 Z M140.32634,162 C138.486061,163.845 136.87331,166.875 138.321678,162 C135.108205,161.128 135.187389,163.539 134.312354,165 C135.476061,165.839 136.999604,166.319 139.324009,166 C140.123869,164.132 140.998904,162.338 141.328671,160 C138.841888,161.298 136.464359,157.769 136.317016,160 C138.084126,162.063 139.421235,160.875 140.32634,162 L140.32634,162 Z M269.62704,161 C270.972168,161.658 271.49338,163.138 271.631702,165 C276.955082,166.125 283.009161,160.227 277.645688,157 C276.057995,160.695 271.455291,159.841 269.62704,161 L269.62704,161 Z M252.587413,158 C253.231911,161.024 254.153054,163.771 257.599068,164 C257.820583,163.221 258.439021,162.837 259.60373,163 C258.996317,160.938 261.22049,156.053 257.599068,157 C257.768462,159.169 254.0438,157.453 252.587413,158 L252.587413,158 Z M157.365967,158 C157.046224,160.348 155.782284,161.754 156.363636,165 C160.952308,166.578 158.216946,160.849 161.375291,161 C161.77021,162.721 159.887832,163.563 161.375291,164 C162.609161,162.819 164.947599,157.67 163.379953,157 C161.345221,160.701 159.78359,161.418 157.365967,158 L157.365967,158 Z M226.526807,175 C226.45965,170.895 229.286224,164.471 226.526807,161 C226.192028,165.916 225.499417,158.726 223.519814,162 C223.508788,160.533 223.898695,153.817 222.517483,157 C221.89704,159.714 223.789441,164.937 221.515152,166 C221.189394,163.592 222.37014,154.57 220.512821,157 C220.487762,159.642 221.447995,163.266 217.505828,162 C216.909441,164.071 218.744709,168.569 216.503497,169 C215.772797,166.729 218.309697,161.198 214.498834,162 C212.695641,173.991 212.207506,182.16 211.491841,196 C213.752098,195.255 211.883753,190.391 212.494172,188 C214.773473,187.274 211.571026,181.079 215.501166,182 C214.440699,177.91 214.034755,172.988 216.503497,170 C217.464732,173.371 213.433357,176.831 216.503497,179 C216.946527,173.969 221.348765,165.008 220.512821,171 C221.068112,167.022 218.18641,166.852 220.512821,163 C223.944802,175.022 214.728368,180.567 214.498834,192 C214.028741,195.728 218.475082,180.55 221.515152,178 C221.33373,182.602 214.901772,191.052 213.496503,197 C212.405967,201.616 212.575361,212.524 213.496503,209 C212.036107,198.326 221.981235,191.281 217.505828,193 C218.384872,190.248 219.248881,183.578 221.515152,188 C221.739674,186.109 220.385524,185.794 220.512821,184 C223.361445,186.95 220.687226,177.271 224.522145,179 C223.306317,175.165 225.01028,165.887 226.526807,164 C227.953124,168.48 223.82352,172.559 226.526807,175 L226.526807,175 Z M190.44289,201 C189.433543,198.342 189.396457,195.908 191.445221,194 C191.049301,198.568 190.355688,202.863 193.449883,206 C191.13951,201.097 195.018531,195.258 192.447552,189 C192.277156,190.496 192.805385,192.69 191.445221,193 C191.550466,188.896 191.609604,184.836 189.440559,183 C188.931375,186.491 188.98951,190.55 187.435897,193 C185.875268,186.746 191.152541,182.082 188.438228,178 C186.248135,184.716 184.916037,196.836 190.44289,201 L190.44289,201 Z M187.435897,174 C183.83352,166.212 183.584942,161.268 182.424242,159 C179.647786,153.576 182.972517,164.405 182.424242,161 C184.025967,170.942 184.921049,177.834 185.431235,187 C186.253147,182.819 187.386783,178.951 187.435897,174 L187.435897,174 Z M197.459207,166 C198.003473,163.425 201.228974,154.386 199.463869,156 C198.638951,158.561 194.725851,163.206 197.459207,166 L197.459207,166 Z M194.452214,159 C193.362681,172.881 198.330233,153.569 196.456876,156 C195.970746,157.182 195.388392,158.267 194.452214,159 L194.452214,159 Z M250.582751,157 C251.589091,153.662 249.191515,153.721 246.573427,154 C246.270723,156.635 247.961655,157.282 250.582751,157 L250.582751,157 Z M264.615385,155 C263.158998,155.547 259.434336,153.831 259.60373,156 C261.446014,157.162 260.298345,161.307 264.615385,160 C265.654802,157.443 267.612354,154.535 264.615385,153 L264.615385,155 L264.615385,155 Z M186.433566,161 C187.788718,160.831 188.436224,166.085 189.440559,163 C186.741282,158.537 186.661096,147.491 186.433566,161 L186.433566,161 Z M190.44289,166 C183.821492,165.605 186.743287,155.691 184.428904,151 C183.477692,163.615 187.648392,171.121 191.445221,179 C192.186946,173.266 188.247786,170.284 190.44289,166 L190.44289,166 Z M162.377622,154 C162.599138,153.221 163.216573,152.837 164.382284,153 L164.382284,150 C161.676993,150.284 157.648625,150.383 160.37296,154 C160.612517,152.914 162.022797,151.599 162.377622,153 C161.821329,152.997 161.239977,153.81 162.377622,154 L162.377622,154 Z M153.356643,156 C156.494942,156.464 157.831049,155.131 157.365967,152 C154.212634,153.146 154.930303,150.43 153.356643,150 C153.046923,152.338 151.394079,154.132 153.356643,156 L153.356643,156 Z M255.594406,151 C252.376923,151.832 253.516573,151.852 251.585082,150 L251.585082,153 C253.909487,153.319 255.43303,152.839 256.596737,152 C257.326434,150.365 254.605105,147.65 254.592075,150 C255.203497,150.057 255.778834,150.149 255.594406,151 L255.594406,151 Z M293.682984,149 C295.829977,151.191 296.801235,154.555 299.69697,156 C299.703986,152.589 292.012098,147.559 293.682984,149 L293.682984,149 Z M148.344988,153 C151.487296,153.468 151.170559,150.486 152.354312,149 C150.974103,149.043 150.153193,148.529 149.347319,148 C148.781002,150.081 146.48366,151.232 148.344988,153 L148.344988,153 Z M272.634033,150 C269.567902,149.275 269.686177,151.725 266.620047,151 C266.395524,152.891 267.749674,153.206 267.622378,155 C272.062704,155.43 273.969138,153.332 274.638695,150 C272.879604,148.422 272.558858,145.408 269.62704,145 C268.875291,148.417 273.698508,146.271 272.634033,150 L272.634033,150 Z M177.412587,196 C180.358438,199.081 183.872611,206.861 187.435897,206 C185.688834,205.097 183.574918,203.763 185.431235,202 C186.861562,202.239 187.121166,203.646 188.438228,204 C182.004266,190.675 182.442284,171.068 180.41958,158 C177.224149,158.854 176.614732,157.129 175.407925,156 C178.413916,168.005 184.036993,182.719 183.426573,195 C180.523823,191.212 181.987226,177.792 178.414918,178 C179.475385,181.31 180.837552,189.537 179.417249,192 C179.798135,189.456 178.636434,187.422 178.414918,186 C176.140629,171.408 177.632098,197.146 180.41958,198 C182.516457,200.812 184.18634,197.839 185.431235,201 C184.106154,201.012 184.515105,202.753 183.426573,203 C182.009277,200.704 179.09049,194.717 177.412587,196 L177.412587,196 Z M169.393939,185 C169.8069,189.922 170.333124,194.729 173.403263,197 C171.4838,193.581 171.792517,187.94 169.393939,185 L169.393939,185 Z M168.391608,157 C168.749441,164.31 168.091911,172.633 172.400932,176 C169.05014,187.02 174.305361,198.093 180.41958,203 C175.897063,195.599 170.257949,186.692 173.403263,177 C172.928159,176.035 173.445361,183.599 174.405594,182 C178.159324,175.747 174.074825,159.305 174.405594,150 C169.619464,149.225 174.65317,158.247 171.398601,159 C170.312075,154.511 173.235874,144.725 171.398601,146 C168.574033,150.021 172.128298,165.747 168.391608,157 L168.391608,157 Z M155.361305,149 C157.645618,149.279 159.129068,148.759 159.370629,147 C157.887179,146.479 156.843753,145.521 155.361305,145 L155.361305,149 L155.361305,149 Z M247.575758,172 C245.433776,162.471 245.478881,150.758 240.559441,144 C241.610886,154.618 244.989744,162.913 247.575758,172 L247.575758,172 Z M289.67366,159 C290.553706,160.128 294.904825,165.921 292.680653,161 C290.109674,155.311 280.39007,145.668 279.65035,144 C282.715478,149.643 287.281096,155.932 289.67366,159 L289.67366,159 Z M285.664336,158 C282.954033,153.229 276.437879,142.063 275.641026,142 C277.786014,147.334 284.676037,158.128 285.664336,158 L285.664336,158 Z M289.67366,155 C294.483846,160.535 296.555664,168.8 303.706294,172 C298.308741,167.709 294.187156,156.843 289.67366,155 L289.67366,155 Z M303.706294,173 C306.806503,173.093 306.69324,169.98 306.713287,167 C298.991329,157.37 290.431422,148.578 283.659674,138 C285.555082,148.289 297.913823,156.313 302.703963,167 C301.348811,167.169 300.701305,161.915 299.69697,165 C300.864685,165.168 300.785501,166.581 300.699301,168 C306.228159,165.473 306.43965,170.39 303.706294,173 L303.706294,173 Z M210.48951,150 C210.083566,147.022 211.460769,137.098 209.487179,139 C210.587739,144.093 206.754825,147.891 210.48951,150 L210.48951,150 Z M118.275058,180 C117.434103,176.823 116.952984,181.774 117.272727,183 C116.148112,183.102 115.712098,181.546 115.268065,183 C115.879487,183.057 116.454825,183.149 116.270396,184 C115.714103,183.997 115.132751,184.81 116.270396,185 C117.129394,182.262 121.849371,180.066 119.277389,177 C124.851352,173.352 138.014965,158.604 136.317016,151 C131.952867,159.714 121.094615,171.742 118.275058,180 L118.275058,180 Z M144.335664,133 C140.36042,140.426 133.511492,147.167 127.296037,155 C119.663287,164.619 108.042261,175.782 111.258741,185 C119.752494,172.807 128.287343,160.656 137.319347,149 C137.265221,150.72 138.091142,151.563 139.324009,152 C143.088765,145.695 149.908625,137.686 144.335664,133 L144.335664,133 Z M129.300699,151 C129.486131,150.69 129.100233,147.223 129.300699,147 C129.92014,146.312 142.464312,140.821 139.324009,135 C139.099487,135.776 139.296946,136.973 138.321678,137 C138.097156,136.224 138.294615,135.027 137.319347,135 C128.967925,146.288 121.987692,148.766 111.258741,164 C111.034219,163.224 111.231678,162.027 110.25641,162 C108.967413,165.381 106.025571,167.112 105.244755,171 C113.228322,164.779 124.848345,158.473 129.300699,151 L129.300699,151 Z M303.706294,155 C296.229907,148.792 290.638904,140.704 285.664336,132 C288.361608,142.314 297.242261,151.775 303.706294,155 L303.706294,155 Z M246.573427,139 C251.501888,139.068 246.180513,132.713 248.578089,132 C246.853077,132.395 246.008112,130.516 245.571096,132 C246.951305,133.548 247.58979,138.002 246.573427,139 L246.573427,139 Z M168.391608,132 C171.891748,132.895 170.10359,128.738 169.393939,128 C167.206853,127.818 166.204522,128.818 166.386946,131 C168.110956,131.395 168.955921,129.516 169.393939,131 C168.782517,131.057 168.207179,131.149 168.391608,132 L168.391608,132 Z M166.386946,134 C164.018438,131.336 156.970047,128.098 155.361305,128 C159.092984,131.506 163.368928,134.049 166.386946,134 L166.386946,134 Z M233.543124,127 C232.187972,126.686 231.628671,125.577 229.5338,126 C229.872587,130.671 226.75634,131.896 224.522145,134 C229.969814,134.102 229.333333,128.134 233.543124,127 L233.543124,127 Z M212.494172,132 C213.200816,137.708 215.09021,132.641 218.508159,133 C215.755758,135.73 216.740047,136.987 214.498834,139 C221.913077,136.731 232.077716,137.204 233.543124,129 C229.758322,133.557 224.741655,136.885 216.503497,137 C216.773124,131.692 227.247483,137.014 220.512821,133 C227.630373,133.768 226.80345,126.609 230.536131,124 C225.119534,128.295 219.482424,134.59 212.494172,132 L212.494172,132 Z M245.571096,142 C254.955921,146.562 266.818508,128.714 265.617716,123 C262.217809,132.298 254.458765,141.374 245.571096,142 L245.571096,142 Z M192.447552,138 C192.560816,136.78 192.747249,135.632 194.452214,136 C194.455221,137.003 193.640326,137.19 193.449883,138 C196.603217,137.521 197.367995,139.424 199.463869,140 C200.428112,136.371 194.959394,139.16 195.454545,136 C195.617925,137.283 201.571772,137.283 198.461538,136 C192.024569,139.128 189.553823,125.469 185.431235,130 C189.313263,130.46 189.204009,134.903 192.447552,136 C188.462284,136.593 187.500047,129.002 184.428904,132 C188.417179,132.687 187.933054,137.837 192.447552,138 L192.447552,138 Z M202.470862,135 C200.669674,130.894 198.517669,133.082 193.449883,133 C192.412471,131.94 191.38007,125.859 189.440559,129 C190.443893,135.333 200.146457,132.985 203.473193,137 C211.352517,126.454 192.5969,121.685 186.433566,122 C191.38007,126.075 207.65993,124.143 202.470862,135 L202.470862,135 Z M190.44289,121 C194.831096,121.933 200.008135,122.373 203.473193,124 C202.672331,117.978 194.827086,118.897 190.44289,121 L190.44289,121 Z M98.2284382,132 C100.591935,131.691 100.092774,128.527 103.240093,129 C101.137203,132.26 95.6995571,137.445 96.2237762,140 C101.398811,132.49 110.754569,123.838 113.263403,117 C109.822401,122.345 98.5912821,130.212 98.2284382,132 L98.2284382,132 Z M192.447552,142 C206.287739,142.526 191.443217,138.842 188.438228,143 C193.526061,144.35 201.895524,144.948 204.475524,141 C201.585804,141.827 195.75324,144.907 192.447552,142 L192.447552,142 Z M185.431235,141 C186.987855,142.646 190.108112,141.428 191.445221,140 C188.389114,140.391 186.342354,137.371 185.431235,141 L185.431235,141 Z M189.440559,117 C177.259231,117.022 180.863613,125.346 181.421911,131 C181.579277,129.823 181.24951,128.162 182.424242,128 C181.661469,133.94 181.061072,137.487 185.431235,140 C187.101119,137.8 183.473683,133.887 182.424242,134 C185.582587,129.767 180.188042,124.558 182.424242,121 C188.618648,117.939 203.314825,115.693 207.482517,122 C207.052517,114.236 194.995478,116.99 189.440559,117 L189.440559,117 Z M139.324009,123 C138.719604,119.34 145.94641,118.351 142.331002,115 C141.559207,117.287 135.80683,119.748 139.324009,123 L139.324009,123 Z M76.1771562,117 C76.5841026,121.773 73.2563636,128.041 76.1771562,132 C78.4494406,128.934 75.6990443,120.856 78.1818182,118 C78.6599301,123.385 77.7227506,126.308 79.1841492,129 C80.5864103,126.361 81.0364569,117.566 79.1841492,115 C79.3134499,116.795 78.1888345,117.34 76.1771562,117 L76.1771562,117 Z M227.529138,118 C221.809837,117.652 212.028089,118.502 214.498834,123 C215.906107,118.614 226.238135,120.713 227.529138,118 L227.529138,118 Z M232.540793,116 C233.725548,116.485 234.813077,117.066 235.547786,118 C233.908974,118.564 235.101748,134.194 236.550117,133 C230.912005,136.042 227.690513,141.494 219.51049,142 C212.603427,143.032 222.845245,142.95 222.517483,143 C228.092448,142.158 235.400443,135.6 237.552448,133 C238.457552,127.729 234.705828,121.885 236.550117,119 C237.597552,120.049 237.186597,127.571 238.554779,125 C241.828392,109.404 212.917156,112.816 211.491841,119 C211.503869,117.991 213.248928,117.742 213.496503,119 C212.407972,119.239 211.089907,120.646 212.494172,121 C214.561981,119.237 213.371212,117.903 214.498834,117 C217.990956,119.009 214.414639,116.558 216.503497,116 C219.882354,117.628 226.605991,115.921 229.5338,118 C225.606667,122.207 208.749464,123.761 213.496503,130 C214.116946,122.992 226.215082,122.042 222.517483,125 C225.293939,124.228 229.2331,124.002 225.524476,122 C231.373077,123.501 229.375431,117.175 232.540793,116 L232.540793,116 Z M85.1981352,114 C83.5412821,114.759 83.5412821,122.241 85.1981352,123 C86.569324,120.037 84.6107692,118.646 85.1981352,114 L85.1981352,114 Z M93.2167832,149 C104.287529,140.045 114.507296,130.241 126.293706,122 C127.247925,119.48 129.61042,118.02 126.293706,116 C120.018112,129.073 106.88958,135.308 96.2237762,144 C104.143193,134.234 115.387343,127.785 122.284382,117 C123.456107,119.615 119.191189,121.301 123.286713,121 C123.399977,119.78 123.58641,118.632 125.291375,119 C123.848019,116.379 122.039814,114.839 122.284382,113 C115.761212,127.494 97.4536364,135.557 93.2167832,149 L93.2167832,149 Z M106.247086,117 C106.202984,118.376 106.719184,119.196 107.249417,120 C104.237413,120.135 102.064359,123.99 102.237762,124 C104.929021,124.15 114.108368,113.528 114.265734,113 C110.984103,113.801 108.760932,121.507 106.247086,117 L106.247086,117 Z M309.72028,112 C326.390047,120.438 344.951212,121.968 364.848485,128 C358.433566,135.496 348.422284,126.097 340.792541,127 C349.181049,131.215 363.809068,138.037 368.857809,126 C350.604359,121.188 322.894918,115.219 309.72028,112 L309.72028,112 Z M82.1911422,126 C83.3418182,121.637 82.5018648,114.535 82.1911422,111 C81.1497203,114.328 80.0912587,122.859 82.1911422,126 L82.1911422,126 Z M371.864802,118 C361.203007,116.571 354.60366,111.182 343.799534,111 C353.462005,114.029 363.071352,119.372 371.864802,118 L371.864802,118 Z M187.435897,110 C187.004895,114.839 193.277483,112.893 193.449883,110 C188.345012,106.944 191.949394,112.419 187.435897,110 L187.435897,110 Z M394.918415,115 C395.009627,113.424 397.475361,114.217 396.923077,112 C395.104848,110.756 390.721655,106.93 388.904429,109 C390.67655,110.899 393.877995,111.371 395.920746,113 C390.462051,114.408 388.547599,107.074 385.897436,109 C389.274289,110.631 390.175385,114.732 394.918415,115 L394.918415,115 Z M322.750583,106 C319.338648,105.694 314.602634,101.52 311.724942,104 C317.807086,107.931 326.131445,109.627 332.773893,113 C328.836737,112.377 326.066294,111.283 322.750583,113 C332.158462,113.472 340.780513,119.08 349.81352,119 C349.927786,121.991 353.131235,119.842 356.829837,121 C358.817459,123.358 358.817459,120.908 356.829837,120 C345.382214,116.421 333.994732,112.782 324.755245,107 C322.971096,106.402 320.592564,109.931 319.74359,107 C320.923333,106.843 322.589207,107.172 322.750583,106 L322.750583,106 Z M342.797203,104 C341.648531,106.052 344.370862,108.767 344.801865,106 C343.261282,104.154 339.799231,99.058 336.783217,102 C338.213543,102.39 338.473147,103.2 339.79021,102 C338.916177,105.47 341.332797,105.431 342.797203,104 L342.797203,104 Z M33.0769231,106 C40.7838462,109.206 56.4743357,107.22 64.1491841,102 C51.2421678,103.482 41.0845455,96.167 33.0769231,106 L33.0769231,106 Z M333.776224,101 C333.218928,100.997 332.638578,101.81 333.776224,102 C333.788252,100.678 335.53331,101.086 335.780886,100 C333.065571,99.868 325.37669,95.75 326.759907,98 C328.588159,99.509 332.377972,99.061 333.776224,101 L333.776224,101 Z M309.72028,98 C315.679138,99.696 322.464918,101.223 328.764569,104 C333.784242,106.213 340.104942,113.649 343.799534,108 C337.316457,108.104 323.039254,96.226 309.72028,98 L309.72028,98 Z M395.920746,102 C394.072448,97.652 391.707949,97.807 387.902098,98 C387.677576,97.224 387.875035,96.027 386.899767,96 L386.899767,99 C389.948858,99.958 392.894709,101.019 395.920746,102 L395.920746,102 Z M394.918415,103 C387.428998,104.451 386.090886,94.5 379.88345,98 C383.898788,100.014 388.415291,106.794 394.918415,103 L394.918415,103 Z M388.904429,105 C381.418019,103.247 377.021795,93.168 372.867133,94 C375.972354,99.248 380.505897,108.363 388.904429,105 L388.904429,105 Z M367.855478,95 C370.682051,99.195 375.52331,106.662 380.885781,105 C374.410723,104.702 373.182867,89.939 367.855478,95 L367.855478,95 Z M88.2051282,106 C84.2018182,108.966 85.5649883,115.956 88.2051282,120 C90.8091841,117.291 91.1730303,108.651 88.2051282,106 L88.2051282,106 Z M91.2121212,104 C91.7994872,108.864 89.9441725,115.232 93.2167832,115 C92.9732168,110.91 94.1930536,105.359 91.2121212,104 L91.2121212,104 Z M94.2191142,101 C94.3955245,106.275 94.5929837,110.593 95.2214452,113 C99.8502098,108.502 93.6076923,103.075 98.2284382,100 C98.8388578,102.391 96.9705128,107.255 99.2307692,108 C99.8682517,105.693 100.20303,100.397 97.2261072,99 C96.9644988,100.406 95.0279953,100.14 94.2191142,101 L94.2191142,101 Z M104.242424,101 C101.350699,112.787 85.86669,117.329 85.1981352,128 C94.9077156,116.606 108.341958,106.15 113.263403,93 C114.157483,95.436 108.793007,98.144 113.263403,98 C114.55641,94.62 114.879161,98.124 115.268065,93 C113.887855,93.043 113.066946,92.529 112.261072,92 C110.576154,95.986 107.46993,98.553 104.242424,101 L104.242424,101 Z M57.1328671,96 C62.6697436,99.442 74.7819114,98.583 78.1818182,94 C68.3018415,95.806 61.5561538,88.75 57.1328671,96 L57.1328671,96 Z M103.240093,98 C103.397459,96.823 103.067692,95.162 104.242424,95 C104.412821,96.496 103.884592,98.69 105.244755,99 C105.358019,97.78 105.544452,96.632 107.249417,97 C107.129138,95.337 107.79669,87.943 106.247086,91 C105.698811,92.453 107.417809,96.168 105.244755,96 C103.966783,93.497 105.754942,92.87 104.242424,92 C103.068695,92.698 100.949767,100.157 103.240093,98 L103.240093,98 Z M148.344988,108 C146.593916,117.291 148.069347,125.251 154.358974,129 C150.675408,123.342 147.974126,116.704 149.347319,106 C140.521795,105.138 141.063054,94.931 137.319347,89 C137.868625,98.452 141.352727,104.976 148.344988,108 L148.344988,108 Z M93.2167832,99 C94.5278322,96.27 96.9695105,89.462 95.2214452,87 C93.6317483,90.53 92.6264103,99.104 93.2167832,99 L93.2167832,99 Z M93.2167832,91 C87.0434266,92.175 85.6331469,98.101 82.1911422,102 C82.4838228,101.386 84.6839394,98.15 82.1911422,98 C79.2122145,102.876 78.2529837,103.954 73.1701632,105 C73.8046387,108.367 71.8781585,114.289 74.1724942,116 C74.8400466,112.109 75.8594172,107.463 76.1771562,106 C79.5369697,107.819 73.7845921,114.146 76.1771562,115 C82.1961538,110.516 87.8302564,104.305 89.2074592,98 C90.6077156,100.874 86.4751049,103.08 89.2074592,104 C92.0039627,101.123 91.8075058,95.261 93.2167832,91 L93.2167832,91 Z M27.0629371,96 C34.9352448,96.255 38.6729371,97.123 46.1072261,96 C44.8452914,91.593 40.3869231,90.374 38.0885781,87 C34.6676224,90.253 28.4972727,90.764 27.0629371,96 L27.0629371,96 Z M338.787879,95 C338.266667,93.737 336.344196,88.927 334.778555,92 C336.819301,93.821 340.568019,97.494 338.787879,100 C344.367855,98.411 346.027716,104.075 349.81352,103 C347.332751,94.397 334.000746,86.214 327.762238,88 C328.917925,88.941 334.375618,90.608 330.769231,93 C332.092308,90.233 326.807016,89.567 329.7669,91 C331.815664,93.05 335.368928,98.542 338.787879,98 C335.442098,96.671 335.104312,92.342 332.773893,90 C337.251305,88.59 340.643193,93.406 338.787879,95 L338.787879,95 Z M320.745921,87 C324.407436,90.002 330.230979,101.104 333.776224,95 C327.205944,98.551 326.926294,83.659 320.745921,87 L320.745921,87 Z M316.736597,91 C313.390816,90.955 311.929417,83.862 309.72028,86 C312.225105,86.883 313.555198,94.107 316.736597,91 L316.736597,91 Z M320.745921,92 C318.384429,89.659 314.655758,83.45 311.724942,85 C315.151911,86.278 318.158904,93.207 320.745921,92 L320.745921,92 Z M101.235431,93 C101.717552,90.423 105.27683,85.775 103.240093,84 C102.966457,86.784 99.4653147,91.491 101.235431,93 L101.235431,93 Z M97.2261072,97 C98.5982984,92.702 100.418531,88.852 101.235431,84 C95.9090443,83.714 96.8412121,94.913 97.2261072,97 L97.2261072,97 Z M85.1981352,90 C87.4162937,87.278 96.6237063,83.996 87.2027972,86 C84.7089977,86.154 84.0995804,84.429 82.1911422,84 C80.2345921,86.715 74.947296,86.106 73.1701632,89 C76.1791608,90.331 80.8379953,90.017 85.1981352,90 L85.1981352,90 Z M384.895105,92 C388.909441,89.338 399.11317,92.852 401.934732,89 C401.549837,83.031 391.402238,81.533 385.897436,84 C394.641772,85.883 382.035455,90.19 384.895105,92 L384.895105,92 Z M365.850816,89 C371.340583,90.549 379.834336,90.72 380.885781,85 C378.521282,83.026 374.177179,83.027 370.862471,82 C371.199254,86.336 368.135128,87.28 365.850816,89 L365.850816,89 Z M267.622378,92 C269.259184,89.637 269.363427,82.12 266.620047,81 C267.50711,88.402 259.00634,94.194 262.610723,98 C264.102191,92.472 264.621399,92.941 267.622378,92 L267.622378,92 Z M109.254079,84 C106.942704,84.306 108.14049,81.111 106.247086,81 C106.251096,82.786 103.547809,86.817 106.247086,88 C107.525058,85.497 105.7369,84.87 107.249417,84 C107.261445,85.009 109.006503,85.258 109.254079,84 L109.254079,84 Z M352.820513,84 C357.40317,84.398 363.217692,86.598 363.846154,81 C361.05366,81.374 357.74697,77.191 355.827506,80 C362.304569,82.268 350.121235,82.807 352.820513,84 L352.820513,84 Z M46.1072261,84 C47.9013986,85.877 49.6865501,87.762 51.1188811,90 C55.4970629,90.035 60.1749417,90.369 62.1445221,88 C57.3273193,86.806 56.6096503,81.522 53.1235431,79 C52.1222145,82.001 45.9478555,79.841 46.1072261,84 L46.1072261,84 Z M370.862471,101 C366.692774,97.827 366.040256,91.144 360.839161,89 C361.737249,94.787 366.563473,101.933 370.862471,101 L370.862471,101 Z M344.801865,83 C347.64648,91.502 357.490373,98.332 364.848485,99 C360.420186,97.065 360.970466,84.895 354.825175,88 C355.735291,88.275 358.191002,91.725 355.827506,92 C354.991562,89.451 352.899697,82.988 349.81352,86 C353.027995,87.46 352.708252,92.445 355.827506,94 C349.501795,92.977 351.240839,83.91 344.801865,83 L344.801865,83 Z M387.902098,115 C384.576364,114.281 383.444732,106.165 379.88345,109 C383.209184,109.719 384.340816,117.835 387.902098,115 L387.902098,115 Z M371.864802,105 C369.474242,107.885 373.338228,110.934 374.871795,113 C375.125385,109.414 371.861795,109.336 371.864802,106 C373.79028,107.977 378.411026,112.568 374.871795,114 C380.813613,115.096 382.845338,119.532 390.909091,117 C383.572028,119.473 381.08324,107.195 375.874126,108 C378.379953,109.539 382.710023,114.461 381.888112,116 C377.50993,113.368 376.689021,107.187 371.864802,105 L371.864802,105 Z M365.850816,102 C367.391399,107.479 370.874499,116.3 375.874126,115 C370.67303,112.521 370.088671,105.438 365.850816,102 L365.850816,102 Z M370.862471,114 C366.030233,111.155 366.47627,103.042 361.841492,100 C358.792401,107.891 367.299184,114.703 370.862471,114 L370.862471,114 Z M323.752914,77 L320.745921,77 C318.278182,78.184 322.798695,80.777 319.74359,82 C316.636364,81.434 317.107459,77.296 313.729604,77 C318.30324,88.103 336.037483,86.078 346.806527,91 C347.810862,93.228 351.211772,106.428 355.827506,105 C354.172657,104.985 355.2662,102.226 353.822844,102 C353.598322,102.776 353.795781,103.973 352.820513,104 C353.195385,101.213 349.002634,97.915 351.818182,96 C352.700233,99.818 353.069091,102.266 354.825175,98 C354.384149,101.416 359.317622,111.003 357.832168,106 C358.015594,103.405 354.628718,99.302 356.829837,98 C358.474662,102.026 358.531795,107.635 361.841492,110 C360.351026,105.487 359.772681,100.064 356.829837,97 C355.083776,96.925 353.712587,97.223 352.820513,98 C348.575641,89.045 339.207855,76.188 324.755245,78 C327.261072,79.539 331.591142,84.461 330.769231,86 C328.098019,83.332 325.572145,80.518 323.752914,77 L323.752914,77 Z M267.622378,77 C268.865268,81.427 271.71289,84.252 270.629371,91 C269.689184,93.773 262.739021,95.737 264.615385,98 C272.562867,96.212 273.765664,81.862 267.622378,77 L267.622378,77 Z M91.2121212,81 C95.6474359,82.392 98.9982284,81.218 101.235431,78 C97.8124709,79.15 92.8479254,74.728 91.2121212,81 L91.2121212,81 Z M336.783217,78 C341.762797,79.5 346.362494,79.244 350.815851,77 C348.04641,75.763 345.724009,74.08 341.794872,74 C342.987646,78.19 337.570047,75.785 336.783217,78 L336.783217,78 Z M155.361305,78 C155.595851,69.277 153.595198,75.965 154.358974,81 C157.685711,81.719 158.81634,89.835 162.377622,87 C158.912564,85.124 156.991096,81.707 155.361305,78 L155.361305,78 Z M68.1585082,75 C69.5076457,79.321 63.6971329,76.426 62.1445221,80 C64.20331,80.279 64.1451748,82.671 65.1515152,84 C70.096014,83.933 75.3231702,84.148 77.1794872,81 C71.7478555,81.752 71.2847786,77.547 68.1585082,76 C72.9075524,76.738 75.0495338,74.875 79.1841492,75 C78.7932401,76.427 77.981352,76.686 79.1841492,78 C83.4330303,78.239 87.1236131,77.921 88.2051282,75 C84.834289,76.886 84.9194872,70.473 83.1934732,74 C83.2044988,74.779 73.5380186,74.173 68.1585082,75 L68.1585082,75 Z M317.738928,75 C324.378368,74.624 332.706737,75.932 334.778555,71 C327.321212,67.93 322.800699,72.761 317.738928,75 L317.738928,75 Z M315.734266,74 C316.033963,72.034 314.380117,72.017 313.729604,71 C314.740956,70.988 314.990536,69.248 313.729604,69 C314.323986,71.374 305.043403,68.845 308.717949,71 C314.129534,70.578 305.738019,73.995 309.72028,75 C310.724615,71.697 313.765688,71.593 315.734266,74 L315.734266,74 Z M73.1701632,86 C71.361958,86.85 62.7910256,89.348 66.1538462,89 C76.7865734,85.921 88.6672028,79.309 98.2284382,74 C100.123846,72.948 107.000839,69.164 104.242424,70 C93.9565035,73.362 82.6602331,81.541 73.1701632,86 L73.1701632,86 Z M106.247086,66 C94.7924476,69.412 97.2772261,73.032 106.247086,66 L106.247086,66 Z M22.0512821,82 C37.6355245,85.385 52.8829837,76.521 67.1561772,74 C76.3445455,72.377 87.3381119,73.421 90.2097902,68 C89.5753147,66.152 83.9011189,67.121 91.2121212,65 C63.3743823,65.894 37.821958,69.068 22.0512821,82 L22.0512821,82 Z M105.244755,63 C103.294219,62.48 90.4262937,62.094 93.2167832,66 C97.2742191,63.811 92.4179254,66.898 92.2144522,69 C99.178648,70.713 94.8345455,61.841 100.2331,65 C98.5090909,64.946 97.6631235,65.77 97.2261072,67 C100.458625,66.225 103.149883,64.91 105.244755,63 L105.244755,63 Z M337.785548,71 C354.922401,76.639 385.168741,88.655 398.927739,73 C398.527809,73.456 399.209394,69.507 400.932401,70 C390.494126,64.09 372.089324,67.876 355.827506,64 C347.471072,62.008 341.948228,58.232 333.776224,59 C330.824359,62.604 321.935688,60 321.748252,62 C322.529068,61.779 322.91296,61.163 322.750583,60 C320.394103,62.806 309.564918,62.854 317.738928,65 C316.216387,66.456 311.242821,64.395 309.72028,68 C320.861189,66.549 332.101329,68.977 339.79021,70 C339.012401,70.224 337.812611,70.027 337.785548,71 L337.785548,71 Z M21.048951,71 C40.85,74.57 59.8401632,61.43 82.1911422,64 C85.8446387,62.756 68.942331,62.294 67.1561772,63 C63.1558741,58.13 52.5482051,65.386 48.1118881,63 C49.4369697,61.318 63.5928904,60.27 65.1515152,59 C46.9692308,59.527 32.6810023,63.939 21.048951,71 L21.048951,71 Z M400.932401,56 C392.2462,52.486 384.488159,57.986 374.871795,59 C360.717879,60.493 346.520862,53.009 334.778555,57 C355.450629,58.845 380.486853,66.133 400.932401,56 L400.932401,56 Z M394.918415,52 C391.214802,52.638 384.933193,50.705 382.890443,53 C387.547273,53.501 391.627762,54.758 394.918415,52 L394.918415,52 Z M335.780886,53 C338.258648,52.566 347.647483,52.949 341.794872,52 C331.636247,50.353 317.566527,55.558 312.727273,58 C322.249417,55.628 331.986061,53.665 335.780886,53 L335.780886,53 Z M281.655012,100 C279.302541,109.32 277.195641,118.884 269.62704,123 C282.237366,122.248 278.677086,105.362 286.666667,100 C292.138392,101.42 296.847343,96.875 295.687646,95 C292.770862,98.423 285.488928,97.492 281.655012,100 L281.655012,100 Z M246.573427,130 C252.231585,131.313 251.286387,126.035 255.594406,126 C255.208508,122.718 252.66359,121.591 251.585082,119 C254.477809,119.447 253.954592,123.303 256.596737,124 C255.165408,115.283 261.176387,116.877 262.610723,113 C264.334732,116.315 262.007319,117.338 259.60373,119 C259.748065,117.818 261.387879,116.733 259.60373,116 C255.05014,121.043 261.707622,119.44 257.599068,124 C259.465408,124.138 260.948858,124.658 261.608392,126 C258.118275,124.308 258.107249,125.631 256.596737,128 C256.372214,127.224 256.569674,126.027 255.594406,126 C253.107622,129.208 246.552378,133.617 250.582751,140 C257.135991,134.481 264.837902,126.096 264.615385,117 C264.724639,119.488 266.493753,120.096 264.615385,122 C282.390723,123.178 272.605967,92.278 290.675991,97 C293.631865,94.826 289.689697,87.99 291.678322,87 C293.141725,88.873 291.717413,93.627 293.682984,95 C300.727366,92.158 306.841585,76.015 298.694639,69 C304.000979,67.278 306.984918,57.96 306.713287,54 C305.885361,55.268 303.202121,59.702 301.701632,57 C304.721655,56.763 302.210816,54.217 305.710956,53 C302.233869,53.802 301.857995,51.511 298.694639,52 C295.949254,54.261 293.103636,56.422 288.671329,57 C286.235664,67.903 277.87021,72.89 274.638695,83 C277.545455,77.672 272.82648,78.685 272.634033,79 C274.070373,76.652 276.461935,77.435 276.643357,72 C276.79972,73.177 276.470956,74.838 277.645688,75 C279.688438,68.693 287.739161,63.086 286.666667,57 C284.371329,59.71 278.130816,58.484 276.643357,62 C278.332284,63.647 281.147832,64.173 282.657343,66 C279.35366,65.629 277.648695,63.664 275.641026,62 C264.217459,65.059 269.976853,80.867 274.638695,87 C272.105804,96.529 260.830583,101.35 261.608392,111 C262.338089,109.365 259.61676,106.65 259.60373,109 C258.947203,115.689 244.615874,117.373 246.573427,130 L246.573427,130 Z M96.2237762,51 C97.4035198,51.157 99.0683916,50.828 99.2307692,52 C98.4529604,52.224 97.2531702,52.027 97.2261072,53 C99.7148951,53.15 101.385781,52.483 102.237762,51 C101.186317,50.363 93.6467832,49.017 96.2237762,51 L96.2237762,51 Z M317.738928,53 C330.312168,47.946 361.975804,55.892 379.88345,51 C359.461958,47.963 335.406014,46.346 317.738928,53 L317.738928,53 Z M51.1188811,49 C57.4546154,49.508 50.5034499,48.967 51.1188811,52 C55.5040793,54.094 52.2785781,57.016 53.1235431,59 C62.198648,53.203 80.2416084,62.849 88.2051282,60 C81.1587413,60.537 82.4046387,56.965 79.1841492,58 C82.2312354,54.923 94.9528205,57.814 99.2307692,60 C96.9304196,59.312 92.7647319,59.35 90.2097902,61 C93.2518648,62.111 97.8224942,60.363 103.240093,61 L103.240093,57 C79.4397436,59.887 72.9616783,45.431 51.1188811,49 L51.1188811,49 Z M50.1165501,48 C43.9411888,48.173 35.989697,46.573 35.0815851,52 C32.6268765,47.817 18.8408159,54.259 20.04662,57 C22.4231469,52.29 28.6215618,54.788 31.0722611,52 C31.6155245,55.66 30.260373,55.487 30.0699301,59 C26.5417249,56.438 23.1508392,58.851 23.0536131,56 C22.2016317,57.483 20.5307459,58.15 18.041958,58 C15.8248019,56.56 19.3038928,55.56 17.039627,55 C15.7486247,57.379 10.5304895,55.839 10.02331,59 C20.0516317,57.005 26.8985548,61.023 33.0769231,59 L33.0769231,62 C35.547669,62.132 37.9061538,62.151 39.0909091,61 C48.3384149,59.407 35.9325641,61.356 35.0815851,60 C40.3608625,57.04 46.1352914,60.51 51.1188811,58 C46.7386946,56.61 50.3581119,52.824 47.1095571,53 C46.9090909,51.148 49.6655012,51.502 50.1165501,48 L50.1165501,48 Z M300.699301,51 C302.594709,50.776 302.910443,52.127 304.708625,52 C305.285967,51.394 307.055082,47.257 304.708625,47 C304.611399,49.57 300.796527,48.43 300.699301,51 L300.699301,51 Z M338.787879,47 C351.795128,45.657 338.033124,45.023 331.771562,48 C336.364242,48.466 336.324149,47.254 338.787879,47 L338.787879,47 Z M301.701632,69 C306.076807,74.956 302.694942,83.568 303.706294,89 C307.505128,84.614 307.873986,73.395 303.706294,69 C309.825524,63.121 312.087786,51.448 307.715618,45 C306.201096,48.995 307.162331,52.29 309.72028,56 C305.624755,58.915 306.588998,66.876 301.701632,69 L301.701632,69 Z M351.818182,43 C337.212214,41.831 339.327133,46.064 351.818182,43 L351.818182,43 Z M310.722611,47 C314.276876,46.879 317.076387,46.006 317.738928,43 C314.831166,40.599 311.459324,44.14 310.722611,47 L310.722611,47 Z M123.286713,47 C129.380886,48.215 143.872587,54.243 150.34965,55 C140.856573,51.132 128.839627,44.467 120.27972,43 C121.710047,43.39 121.96965,44.2 123.286713,43 C124.447413,44.479 124.447413,45.521 123.286713,47 L123.286713,47 Z M390.909091,48 C386.274312,48.353 380.953939,46.091 378.881119,49 C395.968858,49.048 407.975781,44.027 419.97669,39 C401.415524,42.837 384.387925,40.4 367.855478,44 C360.145548,43.25 349.01366,45.19 362.843823,45 C375.877133,46.33 389.31338,42.75 399.93007,45 C394.955501,44.397 391.71296,48.642 391.911422,45 C391.856294,46.278 390.626434,46.385 390.909091,48 L390.909091,48 Z M122.284382,50 C128.129977,61.456 143.810443,53.039 152.354312,60 C144.476993,52.348 133.79014,52.977 122.284382,50 L122.284382,50 Z M133.310023,60 C132.786807,56.522 127.914476,57.383 125.291375,56 C126.082214,61.513 136.502448,60.588 139.324009,61 C136.351096,63.937 133.16669,60.719 130.30303,63 C138.465012,64.589 148.01021,61.258 152.354312,68 C152.358322,64.33 148.844149,64.168 147.342657,62 C150.490979,60.336 151.438182,65.719 152.354312,63 C147.888928,58.327 142.452284,58.219 136.317016,57 C136.204755,60.534 134.479744,56.896 133.310023,60 L133.310023,60 Z M114.265734,39 C114.294802,44.362 110.561119,45.971 109.254079,50 C112.885524,54.206 109.905594,57.538 110.25641,63 C116.02683,64.562 117.812984,70.058 115.268065,72 C122.002727,70.309 121.357226,81.222 125.291375,79 C124.202844,78.76 122.884779,77.353 124.289044,77 C129.500163,83.043 138.819837,85.631 141.328671,92 C144.631352,100.382 145.86021,102.181 151.351981,107 C150.908951,113.674 151.393077,123.975 156.363636,122 C154.627599,124.462 158.841399,127.671 161.375291,129 C162.633217,125.922 162.465828,121.421 165.384615,120 C165.338508,123.954 163.177483,125.798 162.377622,129 C168.746434,130.602 168.621142,119.98 165.384615,118 C164.511585,120.186 157.856107,121.745 157.365967,121 C159.559068,119.521 162.761515,119.05 164.382284,117 C161.765198,116.171 158.883497,120.024 157.365967,117 C161.082611,117.708 161.66697,115.292 165.384615,116 C165.852704,113.439 161.839371,110.331 164.382284,109 C164.120676,111.928 166.648555,112.072 166.386946,115 C175.45303,112.014 167.124662,100.526 163.379953,98 C163.364918,99.651 160.599487,98.56 160.37296,100 C161.872448,100.17 164.071562,99.643 164.382284,101 L161.375291,101 C161.635897,104.073 163.549347,105.497 164.382284,108 C162.007762,109.707 156.276434,113.912 160.37296,116 C155.630932,112.941 157.166503,119.435 154.358974,121 C155.994779,117.578 154.238695,117.995 152.354312,116 C153.73352,115.957 154.555431,116.471 155.361305,117 C154.602541,114.592 154.565455,112.158 156.363636,110 C156.911911,111.453 155.191911,115.168 157.365967,115 C157.566434,111.2 161.580769,111.205 161.375291,107 C159.090979,107.279 157.607529,106.759 157.365967,105 C158.68303,106.02 161.060559,105.98 162.377622,107 C162.639231,104.072 160.111352,103.928 160.37296,101 C157.025175,100.993 157.716783,105.017 155.361305,106 C155.06662,103.961 152.648998,104.039 152.354312,102 C154.840093,102.147 157.218625,102.186 157.365967,100 C147.439883,95.988 154.596527,103.678 147.342657,97 C152.629953,95.435 156.958019,100.015 159.370629,98 C157.989417,94.044 155.233007,91.461 152.354312,89 C154.837086,90.733 158.315175,91.38 159.370629,90 C150.785664,87.957 154.386037,75.288 151.351981,70 C146.580886,74.574 140.30028,77.64 135.314685,82 C137.181026,82.138 138.664476,82.658 139.324009,84 C125.007716,80.428 128.306387,65.44 115.268065,61 C119.29042,61.207 119.751492,60.747 117.272727,59 C120.040163,58.321 119.560047,58.819 121.282051,56 C122.109977,58.826 119.869767,58.591 120.27972,61 C121.779207,61.17 123.978322,60.643 124.289044,62 C123.109301,62.157 121.444429,61.828 121.282051,63 C125.242261,70.049 130.782145,75.521 141.328671,76 C141.865921,71.229 149.084709,74.027 151.351981,69 C149.798368,67.883 149.264126,65.749 146.340326,66 C146.202005,67.862 145.680793,69.342 144.335664,70 C143.925711,67.591 146.165921,67.826 145.337995,65 L139.324009,65 C139.148601,67.908 142.845198,72.064 140.32634,74 C139.68986,70.635 139.614685,66.71 137.319347,65 C135.922098,66.606 132.372844,66.065 131.305361,68 C127.957576,62.745 120.802937,52.558 118.275058,44 C119.004755,45.635 116.283427,48.35 116.270396,46 C118.553706,44.58 119.920886,37.744 114.265734,39 L114.265734,39 Z M114.265734,37 C105.298881,40.54 103.891608,60.288 113.263403,69 C108.120443,63.337 110.961049,54.867 107.249417,49 C111.528368,46.936 110.92697,40.003 114.265734,37 L114.265734,37 Z M321.748252,38 C320.67676,41.736 324.23704,40.85 323.752914,44 C326.096364,43.671 327.894545,42.798 329.7669,42 C328.075967,39.283 331.356597,37.317 327.762238,36 C325.674382,36.842 323.534406,39.798 321.748252,38 L321.748252,38 Z M54.1258741,43 C48.7634033,42.984 43.0330769,42.599 40.0932401,45 C42.3354545,47.361 48.4206061,41.339 50.1165501,46 C50.3921911,43.941 53.8502331,45.059 54.1258741,43 L54.1258741,43 Z M91.2121212,55 C97.0116084,55.535 94.6851981,53.215 90.2097902,54 C75.51662,51.74 62.3991142,38.804 52.1212121,46 C69.39338,44.768 76.951958,53.227 91.2121212,55 L91.2121212,55 Z M22.0512821,39 C29.6539627,39.251 35.9335664,38.184 42.0979021,37 C43.2776457,37.157 44.9425175,36.828 45.1048951,38 C36.271352,39.703 24.9981352,39.74 19.044289,42 C31.8500699,45.418 47.3841958,40.335 55.1282051,39 C55.0119347,40.665 46.9331469,39.335 50.1165501,41 C56.7118881,42.069 61.4699534,40.552 66.1538462,42 C64.654359,42.17 62.4552448,41.643 62.1445221,43 C70.2804429,43.453 77.6124942,52.309 84.1958042,48 C84.7671329,50.413 89.9842657,48.946 92.2144522,52 C92.304662,50.424 94.7703963,51.217 94.2191142,49 C92.6624942,46.136 89.5412354,51.083 88.2051282,48 C89.3848718,47.843 91.0497436,48.172 91.2121212,47 C83.7547786,46.097 85.7484149,46.115 81.1888112,45 C81.96662,44.776 83.1664103,44.973 83.1934732,44 C81.409324,43.402 79.0307925,46.931 78.1818182,44 C79.5219347,44.154 83.707669,42.429 81.1888112,42 C78.9335664,43.706 75.7190909,42.916 79.1841492,41 C76.128042,42.267 74.0812821,37.581 73.1701632,40 C74.3549184,40.485 75.4424476,41.066 76.1771562,42 C62.8231002,35.498 41.3040559,34.856 22.0512821,39 L22.0512821,39 Z M53.1235431,35 C52.893007,35 48.7463636,33.919 46.1072261,36 C58.5351282,36.508 66.8825408,35.031 53.1235431,35 L53.1235431,35 Z M97.2261072,43 C95.6243823,39.607 103.505711,38.266 104.242424,34 C100.942751,33.958 99.2518182,32.311 95.2214452,33 C92.8880186,34.471 88.5308858,44.337 94.2191142,42 C91.6691841,38.75 97.8014452,45.279 97.2261072,43 L97.2261072,43 Z M372.867133,41 C373.62289,38.42 380.280373,41.73 379.88345,38 C376.506597,36.672 374.041865,29.202 368.857809,33 C372.494266,33.373 369.544406,40.315 372.867133,41 L372.867133,41 Z M337.785548,41 L346.806527,41 C346.551935,37.254 345.233869,34.57 342.797203,33 C338.937226,34.6 338.057179,38.239 337.785548,41 L337.785548,41 Z M354.825175,31 C354.167646,36.022 356.085105,39.071 354.825175,42 C357.178648,41.681 358.587925,40.42 361.841492,41 C359.828811,37.94 363.122471,35.79 360.839161,33 C359.558182,31.612 356.106154,32.388 354.825175,31 L354.825175,31 Z M399.93007,37 C401.285221,36.685 401.844522,35.577 403.939394,36 C404.332308,31.241 397.522471,28.448 393.916084,31 C396.358765,32.562 396.535175,36.387 399.93007,37 L399.93007,37 Z M381.888112,33 C382.978648,35.245 386.711329,34.854 385.897436,39 C387.654522,38.086 390.898065,38.656 391.911422,37 C388.838275,36.356 387.374872,28.918 384.895105,31 C388.713986,32.727 380.992028,30.923 381.888112,33 L381.888112,33 Z M317.738928,36 C320.778998,36.033 320.235734,32.492 320.745921,30 L317.738928,30 C318.048648,32.337 319.701492,34.131 317.738928,36 L317.738928,36 Z M84.1958042,41 C82.6081119,33.749 87.7991841,33.261 90.2097902,30 C84.573683,27.361 77.3949883,30.983 74.1724942,34 C76.1320513,39.694 81.9736364,37.096 84.1958042,41 L84.1958042,41 Z M323.752914,34 C326.238695,34.147 328.616224,34.186 328.764569,32 C325.762587,31.342 329.722797,29.862 328.764569,28 C327.265082,28.17 325.065967,27.643 324.755245,29 C327.789301,30.223 324.046597,32.816 323.752914,34 L323.752914,34 Z M19.044289,32 C15.9771562,30.758 15.8458508,29.092 18.041958,27 C15.5712121,26.868 13.2127273,26.849 12.027972,28 C11.2501632,31.833 18.1612354,33.137 19.044289,32 L19.044289,32 Z M25.0582751,30 C26.5507459,33.178 31.1033333,33.303 36.0839161,33 C37.27669,30.857 37.1654312,27.413 39.0909091,26 C33.3134732,26.236 26.9376457,25.874 25.0582751,30 L25.0582751,30 Z M405.944056,30 C409.384056,29.302 409.424149,37.105 411.958042,34 C411.176224,31.517 420.918881,30.967 422.983683,28 C421.328834,27.985 422.422378,25.226 420.979021,25 C419.156783,30.08 420.787576,26.171 417.972028,26 C418.718765,29.858 410.266107,27.348 405.944056,30 L405.944056,30 Z M98.2284382,30 C102.048322,30.886 107.746573,35.13 111.258741,33 C109.926643,31.996 107.529068,32.054 107.249417,30 C109.436503,29.363 110.438834,32.834 110.25641,29 C105.424172,28.487 104.088065,24.487 98.2284382,25 L98.2284382,30 L98.2284382,30 Z M76.1771562,26 C67.7846387,25.103 61.8458275,25.332 59.1375291,32 C63.1067599,34.231 66.377366,30.943 68.1585082,35 C69.6289277,30.8 72.3322145,27.831 76.1771562,26 L76.1771562,26 Z M333.776224,32 C336.190839,32.409 335.955291,30.174 338.787879,31 C337.984009,27.531 340.28035,27.156 339.79021,24 C334.639231,23.528 333.776224,27.333 333.776224,32 L333.776224,32 Z M45.1048951,32 C53.8662704,33.408 54.4105361,26.617 59.1375291,24 C52.0520513,24.265 44.2118182,23.775 45.1048951,32 L45.1048951,32 Z M343.799534,30 C349.977902,30.498 350.291632,25.144 351.818182,21 C344.820909,19.686 345.647832,26.177 343.799534,30 L343.799534,30 Z M354.825175,29 C361.523753,31.313 365.047949,25.488 366.853147,20 L359.83683,20 C359.89296,24.723 355.985874,25.491 354.825175,29 L354.825175,29 Z M74.1724942,25 C78.6208392,23.283 87.9786014,28.698 92.2144522,27 C89.4019114,26 92.1122145,22.375 93.2167832,22 C87.2679487,16.967 78.0254545,19.925 74.1724942,25 L74.1724942,25 Z M367.855478,30 C371.30049,30.438 373.472541,29.605 375.874126,29 C376.892494,24.783 387.372867,20.123 383.892774,18 C374.956993,18.419 372.848089,25.648 367.855478,30 L367.855478,30 Z M57.1328671,21 C63.1779254,25.751 71.1404429,19.424 75.1748252,16 C67.7876457,12.924 56.1144988,14.25 57.1328671,21 L57.1328671,21 Z M406.946387,15 C403.974476,16.702 400.140559,17.544 394.918415,17 C393.593333,23.345 386.160047,23.595 382.890443,28 C394.764056,27.513 399.770699,20.174 406.946387,15 L406.946387,15 Z M408.951049,13 C409.530396,17.721 402.157249,19.196 398.927739,23 L407.948718,23 C404.170932,17.806 417.103007,18.255 413.962704,14 C410.726177,15.016 412.610559,18.829 407.948718,17 C409.930326,16.404 414.802657,9.968 412.960373,12 C411.605221,12.314 411.045921,13.423 408.951049,13 L408.951049,13 Z M280.652681,49 C277.94338,49.482 277.045291,53.599 275.641026,55 C275.912657,54.729 274.375082,53.393 273.636364,54 C264.575291,61.449 265.424266,74.073 260.606061,86 C261.092191,84.942 262.594685,78.381 260.606061,81 C260.959883,84.759 255.896107,92.41 258.601399,92 C259.155688,90.22 259.116597,87.847 260.606061,87 C263.303333,90.263 257.85366,89.889 260.606061,92 C266.779417,77.591 263.705268,64.598 276.643357,59 C290.106667,53.175 307.664499,47.965 315.734266,37 L315.734266,31 C308.840233,26.402 301.8169,32.892 298.694639,38 C298.470117,37.224 298.667576,36.027 297.692308,36 C291.60014,43.25 285.09,50.31 280.652681,54 C281.374359,52.498 281.417459,49.789 280.652681,49 L280.652681,49 Z M185.431235,96 C190.814755,96.704 193.086037,94.304 196.456876,93 C191.917319,93.138 188.987506,94.882 185.431235,96 L185.431235,96 Z M198.461538,93 C201.139767,93.578 204.724103,90.042 206.480186,93 C199.323543,93.527 193.126131,95.011 188.438228,98 C184.442937,93.997 174.677226,105.325 181.421911,103 L179.417249,103 C180.992914,102.239 180.914732,99.828 183.426573,100 C181.333706,103.145 181.323683,106.821 177.412587,110 C177.594009,107.173 173.643823,107.67 176.410256,105 C170.539604,107.477 173.374196,118.638 171.398601,125 C175.141305,123.283 177.070793,120.691 175.407925,116 C182.157622,112.734 184.810793,105.381 192.447552,103 C198.959697,103.435 204.527646,104.837 209.487179,103 C212.944219,107.311 220.093846,102.139 226.526807,103 C234.057319,104.008 238.457552,110.467 242.564103,110 C237.37704,96.363 213.6669,86.828 198.461538,93 L198.461538,93 Z M80.1864802,99 C83.3959441,94.189 92.71662,90.185 93.2167832,86 C89.718648,90.522 80.8700699,94.999 80.1864802,99 L80.1864802,99 Z M65.1515152,126 C63.0295804,128.883 63.8504895,134.702 62.1445221,138 C59.763986,136.935 64.2935198,133.394 61.1421911,132 C60.2511189,136.778 57.177972,139.378 55.1282051,143 L60.1398601,143 C62.6366667,139.838 67.7525641,135.029 65.1515152,126 L65.1515152,126 Z M137.319347,127 C135.332727,134.5 125.259301,137.922 120.27972,141 C122.821632,138.568 130.570653,133.954 126.293706,131 C131.748392,131.108 130.520536,124.551 135.314685,124 C134.488765,124.862 131.188089,130.438 133.310023,128 C135.934126,125.471 138.658462,122.861 136.317016,120 C126.398951,132.105 110.432821,138.176 101.235431,151 C102.01324,151.224 103.21303,151.027 103.240093,152 C93.1867133,153.97 89.9742424,162.765 88.2051282,173 C110.702448,164.778 121.992704,145.375 138.321678,131 C136.597669,130.605 135.751702,132.484 135.314685,131 C136.475385,130.681 140.035664,127.905 137.319347,127 L137.319347,127 Z M156.363636,250 C150.891911,253.311 149.97979,262.702 150.34965,269 C153.033893,269.584 155.45352,264.887 153.356643,264 C153.343613,266.35 150.621282,263.635 151.351981,262 C152.357319,262.003 152.544755,261.19 153.356643,261 C153.212308,262.182 151.571492,263.267 153.356643,264 C154.779953,261.215 156.900886,253.619 156.363636,250 L156.363636,250 Z M224.522145,200 C224.89,198.272 227.552191,193.817 225.524476,193 C223.218112,195.699 223.28627,200.767 221.515152,204 C222.384172,191.2 229.885618,185.018 230.536131,172 C230.29958,186.225 233.357692,170.128 229.5338,167 C230.051002,177.946 220.410583,183.767 222.517483,193 C219.825221,189.624 218.458042,200.798 221.515152,195 C220.657156,197.526 219.708951,205.132 220.512821,206 C221.205431,203.503 223.186037,207.855 225.524476,207 C226.301282,204.227 227.62035,198.991 229.5338,203 C232.327296,192.139 239.261422,166.238 229.5338,154 C233.321608,170.156 233.329627,189.122 224.522145,200 L224.522145,200 Z M300.699301,148 C303.510839,151.777 311.206737,165.526 313.729604,165 C321.521725,163.375 311.077436,141.451 303.706294,142 C303.195105,137.322 294.860723,132.297 291.678322,127 C292.733776,130.719 288.298462,128.961 287.668998,131 C292.023124,135.029 295.539301,141.067 300.699301,148 L300.699301,148 Z M311.724942,136 C313.99021,138.875 312.573916,140.962 317.738928,142 L317.738928,140 C317.681795,139.39 317.58958,138.816 316.736597,139 C318.469627,140.982 309.878648,133.476 311.724942,136 L311.724942,136 Z M21.048951,6 C21.5200466,13.53 27.3355711,15.727 31.0722611,20 C31.816993,17.493 31.1995571,16.837 34.0792541,15 C28.8180186,12.915 25.2507226,9.141 21.048951,6 L21.048951,6 Z M20.04662,2 C19.5304196,5.634 28.5002797,8.941 26.0606061,8 C24.4789277,5.578 22.4742657,3.578 20.04662,2 L20.04662,2 Z M48.1118881,14 C46.2746154,13.557 38.5225874,18.768 36.0839161,18 C36.8186247,18.934 37.9061538,19.515 39.0909091,20 C38.9405594,22.487 35.6970163,20.292 35.0815851,20 C37.1273427,23.626 45.0206993,21.417 49.1142191,23 C48.3584615,18.704 54.2030536,17.36 54.1258741,11 C71.9573427,12.82 93.5535664,18.794 108.251748,27 C109.375361,24.121 111.418112,22.159 115.268065,22 C114.065268,23.314 114.877156,23.573 115.268065,25 C115.080629,29.79 113.524009,23.283 110.25641,25 C111.747879,33.188 117.930256,41.998 126.293706,40 C134.16,49.921 161.363263,48.936 157.365967,74 C160.964336,66.39 154.743869,59.964 154.358974,53 C161.909534,68.467 165.017762,88.366 174.405594,102 C190.04697,85.232 232.388438,85.284 242.564103,107 C259.452378,98.646 260.452704,64.598 271.631702,53 C274.112471,50.427 280.197622,49.213 282.657343,46 C284.441492,46.733 282.801678,47.818 282.657343,49 C294.054848,43.972 295.085245,31.03 308.717949,28 C311.014289,27.49 313.731608,29.043 316.736597,29 C326.212634,28.862 343.394592,21.04 360.839161,19 C368.193263,18.14 375.578438,15.581 381.888112,15 C398.824499,13.441 414.818695,16.794 417.972028,0 C421.260676,5.044 417.167156,18.885 409.95338,20 C407.848485,20.279 411.405758,22.671 408.951049,24 C403.961445,24.022 400.487366,25.556 396.923077,27 C407.320256,31.911 417.243333,19.718 425.990676,26 C424.31979,32.333 416.637925,32.669 411.958042,36 C415.934289,36.942 423.512914,32.88 430,33 C424.773846,44.453 408.331608,44.715 395.920746,49 C403.598601,53.006 419.623869,48.685 420.979021,59 C411.131119,61.508 396.454988,58.229 384.895105,63 C396.630396,59.716 406.68979,67.157 419.97669,68 C420.428741,73.478 409.914289,73.258 406.946387,72 C405.597249,76.321 398.565897,74.972 396.923077,79 C399.833846,82.763 408.222354,81.06 408.951049,87 C405.124149,93.286 398.615012,94.74 388.904429,93 C392.299324,95.613 398.031655,95.894 399.93007,100 C399.699534,103.438 396.947133,104.357 393.916084,105 C394.862284,108.056 398.793427,108.134 398.927739,112 C395.699231,118.553 386.708322,121.861 380.885781,118 C378.597459,123.176 372.094336,122.484 368.857809,123 C365.765618,124.001 371.031865,124.648 370.862471,126 C369.986434,135.011 356.356737,134.756 348.811189,134 C347.867995,136.392 346.19711,138.059 343.799534,139 C345.162704,127.632 321.451562,120.709 308.717949,114 C309.446643,116.94 311.842214,118.216 315.734266,118 C308.795128,120.198 305.99662,112.873 296.689977,116 C307.538205,124.542 320.589557,136.113 334.778555,138 C325.996131,131.091 315.604965,123.497 300.699301,118 C314.230769,120.503 328.9069,130.523 340.792541,138 C336.342191,137.894 334.90986,140.798 329.7669,140 C338.22958,156.798 314.988531,154.258 314.731935,141 C312.6962,140.694 314.937413,143.889 315.734266,144 C308.185711,142.19 301.794848,130.58 293.682984,126 C300.846643,138.519 314.664779,144.4 318.741259,160 C316.368741,164.243 314.967483,167.919 308.717949,166 C310.157296,170.922 303.101888,173.385 305.710956,180 C304.152331,181.207 301.804872,183.195 299.69697,181 C296.879417,188.336 300.869697,196.653 292.680653,199 C289.49324,197.846 287.007459,195.993 285.664336,193 C284.263077,194.935 281.954709,195.965 279.65035,197 C276.619301,196.357 273.864895,195.438 273.636364,192 C271.684825,194.053 270.509091,196.88 266.620047,197 C261.281632,189.326 253.315105,184.274 249.58042,175 C247.497576,183.936 246.876131,196.729 238.554779,202 C237.236713,197.329 246.855082,194.965 244.568765,186 C245.380653,186.19 245.568089,187.003 246.573427,187 C246.943287,183.035 245.654289,177.417 247.575758,175 C245.189207,175.286 244.56676,168.997 244.568765,164 C242.096014,166.766 242.457855,170.813 240.559441,176 C236.670396,171.861 245.228298,162.558 241.561772,155 C239.826737,155.124 237.14049,153.61 237.552448,149 C235.926667,148.285 235.926667,153.716 237.552448,153 C235.841469,156.513 235.35634,150.668 234.545455,150 C233.629324,149.708 233.687459,156.762 237.552448,155 C235.87655,157.961 233.494009,156.52 233.543124,153 C232.639021,162.598 238.586853,174.113 237.552448,186 C233.728555,179.943 233.134172,199.233 233.543124,207 C236.89993,202.493 233.28352,196.559 235.547786,192 C234.760956,187.534 237.086364,185.215 236.550117,191 C235.643007,196.319 238.020536,202.293 236.550117,205 C242.783613,214.114 251.002727,221.247 258.601399,229 C256.381235,233.138 259.518531,236.316 259.60373,241 C256.764126,244.144 251.352541,248.496 255.594406,253 C264.092168,250.654 261.634452,237.504 258.601399,231 C263.677203,241.602 275.765315,245.21 273.636364,263 C270.232448,262.729 265.510466,263.774 263.613054,262 C264.666503,266.008 265.463357,271.161 263.613054,277 C250.633869,278.746 245.605175,264.448 238.554779,257 C238.699114,263.254 247.958648,285.602 235.547786,286 C233.085058,288.543 232.404476,292.864 230.536131,296 C218.224499,296.283 216.298019,286.205 214.498834,276 C211.5169,285.025 210.03345,295.545 204.475524,302 C198.319207,300.476 197.406084,293.72 195.454545,288 C188.668765,293.939 183.014615,293.276 176.410256,296 C174.302354,290.331 173.349138,279.664 175.407925,273 C171.099907,273.035 172.045105,278.313 166.386946,277 C164.934569,274.497 163.959301,273.073 165.384615,270 C162.043846,270.773 155.470559,269.061 149.347319,271 L149.347319,263 C147.736573,262.318 139.243823,263.316 140.32634,257 C140.899674,259.762 143.882611,260.118 146.340326,261 C147.428858,260.753 147.019907,259.012 148.344988,259 C147.615291,254.061 142.018275,253.979 140.32634,250 C141.208392,244.214 142.97951,239.313 146.340326,236 C144.526107,216.486 168.256294,213.893 175.407925,200 C170.749091,199.744 166.878089,191.588 168.391608,182 C162.447786,185.545 155.46655,202.449 146.340326,193 C145.048322,194.378 141.9862,193.989 139.324009,194 C137.808485,192.587 136.158648,189.143 138.321678,187 C136.497436,189.512 132.127273,189.512 130.30303,187 C125.061841,196.754 118.878462,189.651 110.25641,188 C109.829417,186.093 107.392751,186.19 108.251748,183 C104.256457,183.319 100.846527,183.055 99.2307692,181 C98.2875758,172.393 104.095082,170.521 106.247086,165 C98.3627506,166.468 98.0099301,175.448 88.2051282,175 C85.1690676,160.394 92.5382051,151.014 89.2074592,138 C84.2449184,142.383 81.721049,149.198 73.1701632,150 C72.1908858,148.977 71.1885548,147.977 70.1631702,147 C71.0402098,140.208 75.3021212,136.794 80.1864802,134 C74.4792075,131 70.3365734,138.152 67.1561772,141 C68.5323776,138.685 71.0462238,128.897 71.1655012,122 C73.3084848,126.674 71.1203963,130.253 71.1655012,135 C76.1019814,133.258 72.6559674,123.154 75.1748252,119 C63.5548019,122.407 72.6148718,146.446 55.1282051,144 C55.8248252,133.373 66.8775291,128.717 66.1538462,115 C67.6603497,112.061 67.6603497,121.633 66.1538462,122 C69.9617016,123.105 73.7986247,115.648 72.1678322,108 C68.7027739,108.297 66.3883916,113.545 62.1445221,115 C56.3350117,119.537 51.1840326,123.732 47.1095571,129 C46.4921212,133.956 60.784359,125.961 56.1305361,129 C59.5314452,126.78 62.2056643,125.212 63.1468531,120 C63.5588112,129.466 52.8348718,134.614 43.1002331,131 C50.9965967,116.756 69.7331702,107.026 83.1934732,93 C67.2614219,100.167 56.1215152,116.11 31.0722611,111 C30.7775758,108.961 28.3599534,109.039 28.0652681,107 C28.3028205,103.237 32.1758275,103.101 35.0815851,102 C30.0599068,100.813 23.6690443,102.925 20.04662,97 C25.3258974,90.934 33.3896503,87.646 41.0955711,84 C35.6358741,84.131 21.8067133,92.687 17.039627,83 C17.5387879,78.831 21.5711655,78.188 25.0582751,77 C19.8782284,75.501 14.0977855,74.602 9.02097902,73 C12.6524242,67.623 21.2163403,67.167 28.0652681,65 C27.3315618,62.019 19.0041958,64.344 24.0559441,62 C17.9758042,62.357 5.51682984,66.185 0,61 C10.047366,54.69 23.656014,51.934 36.0839161,48 C27.395711,45.654 7.08247086,52.506 5.01165501,41 C16.8802564,38.508 27.9570163,35.225 42.0979021,35 C29.685035,31.81 14.2721911,37.568 6.01398601,30 C10.6006527,20.909 30.0097902,26.607 42.0979021,25 C36.7755245,22.63 24.2604196,22.148 26.0606061,16 C20.1749184,14.402 17.5407925,5.822 19.044289,0 C23.1027273,0.978 27.6051981,6.756 27.0629371,9 C29.1948951,9.906 33.3385315,10.288 37.0862471,12 C40.4610956,12.633 46.3968998,10.711 48.1118881,13 L36.0839161,13 C33.0037529,12.74 31.5764336,10.831 29.0675991,10 C31.3058042,15.434 40.6174592,13.81 48.1118881,14 Z" id="Fill-79" fill="#2B2B2B"></path>
    </g>
</svg>